<?xml version="1.0" encoding="utf-8"?><svg version="1.1" id="Layer_1" xmlns="http://www.w3.org/2000/svg" xmlns:xlink="http://www.w3.org/1999/xlink" x="0px" y="0px" width="30px" height="122.9px" viewBox="0 0 29.957 122.88" enable-background="new 0 0 29.957 122.88" fill="white" xml:space="preserve"><g><path fill-rule="evenodd" clip-rule="evenodd" d="M 15 0 c 8.3 0 15 6.7 15 15 c 0 8.3 -6.7 15 -15 15 C 6.7 30 0 23.2 0 15 C 0 6.7 6.7 0 15 0 L 15 0 z M 15 92.9 c 8.3 0 15 6.7 15 15 s -6.7 15 -15 15 C 6.7 122.9 0 116.2 0 107.9 S 6.7 92.9 15 92.9 L 15 92.9 z M 15 46.5 c 8.3 0 15 6.7 15 15 s -6.7 15 -15 15 C 6.7 76.4 0 69.7 0 61.4 S 6.7 46.5 15 46.5 L 15 46.5 z"/></g></svg>