<?xml version="1.0" standalone="no"?>
<!DOCTYPE svg PUBLIC "-//W3C//DTD SVG 20010904//EN"
 "http://www.w3.org/TR/2001/REC-SVG-20010904/DTD/svg10.dtd">
<svg version="1" xmlns="http://www.w3.org/2000/svg"
 width="512pt" height="512pt" viewBox="0 0 512 512"
 preserveAspectRatio="xMidYMid meet">

<g transform="matrix(0.1,0,0,-0.1,0,512)"
fill="rgb(255, 255, 255)" stroke="none">
<path d="M 665 4256 c -147 -36 -252 -145 -284 -294 c -16 -74 -16 -2729 0 -2804 c 32 -152 144 -264 297 -297 c 75 -16 3689 -16 3764 0 c 159 34 270 150 298 309 c 8 46 10 361 8 1060 l -3 995 l -23 57 c -33 81 -108 160 -190 200 l -67 33 l -1107 5 c -1047 5 -1108 6 -1120 23 c -7 10 -28 55 -47 100 c -117 280 -165 386 -191 427 c -67 104 -159 169 -269 190 c -80 15 -1002 12 -1066 -4 z m 1965 -1398 c 33 -17 51 -35 68 -68 c 21 -42 22 -57 22 -247 l 0 -203 l 214 0 c 205 0 214 -1 246 -22 c 96 -66 92 -197 -9 -265 c -33 -22 -42 -23 -242 -23 l -209 0 l 0 -200 c 0 -221 -5 -243 -59 -294 c -25 -24 -42 -30 -88 -34 c -48 -3 -64 0 -92 20 c -74 51 -76 55 -79 294 l -3 214 l -208 0 c -200 0 -209 1 -242 23 c -101 68 -105 199 -9 265 c 32 21 41 22 246 22 l 214 0 l 0 203 c 0 190 1 205 23 247 c 24 48 88 90 137 90 c 14 0 46 -10 70 -22 z"/>
</g>
</svg>
